<svg width="1422" height="903" viewBox="0 0 1422 903" fill="none" xmlns="http://www.w3.org/2000/svg">
<path d="M518.5 767.435L418 902.435" stroke="white"/>
<path d="M370.033 671.435L217.101 887.162" stroke="white"/>
<path d="M215.5 29.4354L115 164.435" stroke="white"/>
<path d="M369.5 0.298584L269 135.299" stroke="white"/>
<path d="M179.921 441.435L79.421 576.435" stroke="white"/>
<path d="M370.5 164.435L270 299.435" stroke="white"/>
<path d="M517.003 401.207L469.497 562.664" stroke="white"/>
<path d="M607.5 147.435L507 282.435" stroke="white"/>
<path d="M741.362 117.435L640.862 252.435" stroke="white"/>
<path d="M881.339 49.9354L780.839 184.935" stroke="white"/>
<path d="M1258.1 392.435L1185.9 544.467" stroke="white"/>
<path d="M1061.05 59.7095L960.552 194.709" stroke="white"/>
<path d="M1151.5 441.435L1051 576.435" stroke="white"/>
<path d="M1413.71 147.435L1313.21 282.435" stroke="white"/>
<path d="M975 515.435L822.068 731.162" stroke="white"/>
<path d="M852.033 448.435L699.101 664.162" stroke="white"/>
<path d="M269 226.937L90.3885 421.934" stroke="white"/>
<path d="M454.033 362.435L301.101 578.162" stroke="white"/>
<path d="M531.033 27.4354L378.101 243.162" stroke="white"/>
<path d="M1347.37 647.274L1259.77 896.776" stroke="white"/>
<path d="M1054.6 441.435L967 690.938" stroke="white"/>
<path d="M621.096 637.659L533.493 887.162" stroke="white"/>
<path d="M123.223 652.933L35.6191 902.435" stroke="white"/>
<path d="M925.141 112.933L837.537 362.435" stroke="white"/>
<path d="M1194.5 117.435L1094 252.435" stroke="white"/>
<path d="M1176.51 273.435L1128.51 371.435" stroke="white"/>
<path d="M1048.04 201.435L1000.04 299.435" stroke="white"/>
<path d="M955 392.435L907 490.435" stroke="white"/>
<path d="M1397.55 322.435L1349.55 420.435" stroke="white"/>
<path d="M776 384.435L728 482.435" stroke="white"/>
<path d="M568.951 572.188L545.145 678.683" stroke="white"/>
<path d="M1308.27 59.6851L1284.47 166.18" stroke="white"/>
<path d="M1253.35 614.235L1229.55 720.73" stroke="white"/>
<path d="M1168.25 767.435L1120.25 865.435" stroke="white"/>
<path d="M655.5 350.435L607.5 448.435" stroke="white"/>
<path d="M269 460.435L221 558.435" stroke="white"/>
<path d="M221 658.435L173 756.435" stroke="white"/>
<path d="M743 756.435L695 854.435" stroke="white"/>
<path d="M923 737.435L875 835.435" stroke="white"/>
<path d="M1075 664.162L1027 762.162" stroke="white"/>
<path d="M1373.55 478.435L1325.55 576.435" stroke="white"/>
</svg>
