<?xml version="1.0" encoding="UTF-8"?>
<svg id="_레이어_2" data-name="레이어 2" xmlns="http://www.w3.org/2000/svg" viewBox="0 0 782.21 160.28">
  <defs>
    <style>
      .cls-1 {
        fill: #f9f8f2;
      }
    </style>
  </defs>
  <g id="_레이어_1-2" data-name="레이어 1">
    <path class="cls-1" d="M65.13,78.53V11.18s.19-8.23,8.23-8.23,8.79,8.79,8.79,8.79v66.8s.19,8.88-8.88,8.88-8.14-8.88-8.14-8.88Z"/>
    <path class="cls-1" d="M94.62,53.74h71.79s7.63-.37,7.63,7.63-7.86,7.86-7.86,7.86h-21.97s-3.35-.19-3.35,3.35.09,3.73.09,3.73c0,0,.58,1.6,1.34,2.45,1.08,1.21,20.51,24.75,20.51,24.75,0,0,3.98,4.35-.56,8.6-2.95,2.77-6.56,2.48-8.72,1.95-1.06-.26-2.04-.74-2.94-1.36l-16.73-11.5h-.02c-.17-.1-4.24-2.27-7.95.36-2.96,2.1-11.34,8.14-14.87,10.69-1.24.89-2.65,1.49-4.16,1.75-2.52.43-6.27.64-8.35-1.33-1.04-.98-1.59-2.26-1.86-3.54-.6-2.89.36-5.9,2.3-8.12l18.62-21.36h0c.07-.08,2.16-2.16,2.4-3.61.2-1.19-.02-4.49-.02-4.49,0,0-.12-2.87-2.66-2.82-1.56.03-24.54-.09-24.79-.09,0,0,0,0,0,0-.13-.01-6.11-.72-6.29-7.86s8.42-7.03,8.42-7.03Z"/>
    <path class="cls-1" d="M244.74,4.56c-8.62,0-8.52,8.52-8.52,8.52,0,0,.22,26.11,0,27.45-.2,1.18-1.34,1.43-2.04,1.7-.44.17-1.08.25-1.99.2-.56-.03-1.31-.1-2.29-.26-3.17-.5-5.32-7.96-6.48-10.18-1.16-2.22-1.11-3.61-1.11-3.61v-5.69c0-1.48,1.3-1.3,1.3-1.3h2.45s6.75-1.16,6.75-6.75-6.52-6.52-6.52-6.52h-40.69c-.32,0-.64,0-.95.04-2.64.22-3.96.84-3.96.84,0,0-3.03,1.19-3.04,5.32,0,.1-.02,1.45,0,1.55.43,3.34,2.44,4.89,5.17,4.75,1.45-.08,3.58.25,4.97,1.72,2.27,2.41-.15,6.36-.15,6.36l-10.03,21.46c-.6,1.28-.88,2.7-.77,4.11.16,1.96.93,4.54,3.54,6.17,4.67,2.91,8.79-.09,8.79-.09,0,0,12.26-12.91,14.48-15.54s4.76-.09,4.76-.09c0,0,10.6,11.78,11.69,12.96.61.67,1.19,1.22,1.72,1.68,1.52,1.32,3.48,2.01,5.5,2.01h2.46c2.73,0,2.73,2.31,2.73,2.31,0,0,.05,3.75,0,6.38-.05,2.64-3.15,2.31-3.15,2.31,0,0-10.54.02-12.67,0-1.89-.02-2.13-1.76-2.13-1.76,0,0-1.34-6.2-11.1-6.34-6.57-.09-9.12,2.87-10.09,4.82-.39.78-.56,1.65-.56,2.52v28.84c0,8.26,8.25,8.25,8.25,8.25h43.88c8.16,0,8.63-8.63,8.63-8.63V13.36s-.19-8.8-8.8-8.8ZM231.18,94.99h-13.84s-3.05-.14-3.12-3.45c-.07-3.31,3.12-3.45,3.12-3.45h14.02s3.12-.17,3.26,3.5c.14,3.68-3.43,3.4-3.43,3.4Z"/>
    <path class="cls-1" d="M30.44,8.22C13.63,8.22,0,21.23,0,37.27s13.63,29.05,30.44,29.05,30.44-13.01,30.44-29.05-13.63-29.05-30.44-29.05ZM30.44,45.1c-4.53,0-8.21-3.51-8.21-7.83s3.67-7.83,8.21-7.83,8.21,3.51,8.21,7.83-3.67,7.83-8.21,7.83Z"/>
    <path class="cls-1" d="M130.12,2.95c-16.81,0-30.44,10.47-30.44,23.38s13.63,23.38,30.44,23.38,30.44-10.47,30.44-23.38-13.63-23.38-30.44-23.38ZM130.12,32.64c-4.53,0-8.21-2.82-8.21-6.3s3.67-6.3,8.21-6.3,8.21,2.82,8.21,6.3-3.67,6.3-8.21,6.3Z"/>
    <g>
      <path class="cls-1" d="M561.18,140.77c-.43-.37-.9-.52-1.42-.52h-5.61c-.41,0-.74.33-.74.74v3.84c0,.41.33.74.74.74h5.61c.61,0,1.21-.23,1.66-.64l.23-.21c.62-.54,1.21-2.33-.13-3.66l-.34-.29Z"/>
      <ellipse class="cls-1" cx="480.49" cy="146.4" rx="5.96" ry="6.13"/>
      <ellipse class="cls-1" cx="529.9" cy="146.4" rx="5.96" ry="6.13"/>
      <ellipse class="cls-1" cx="584.99" cy="146.4" rx="5.96" ry="6.13"/>
      <path class="cls-1" d="M782.21,151.85v-10.58c0-8.08-9.1-9.1-9.1-9.1,0,0-52.92.06-55.14,0s-2.31-2.53-2.31-2.53c0,0,.83-9.81,1.11-11.93.28-2.13,2.31-2.41,2.31-2.41l41.96-.41c8.93,0,9.4-9.4,9.4-9.4v-10.84c0-9.36-9.63-9.63-9.63-9.63h-99.34c-2.57,0-2.2-2.2-2.2-2.2v-7.54c0-3.56,3.01-3.01,3.01-3.01h99.54c3.7,0,3.42-3.42,3.42-3.42V9.94c0-9.34-8.5-8.5-8.5-8.5h-131.91c-9.33,0-8.49,8.49-8.49,8.49v13.47c0,7.64,7.46,7.46,7.46,7.46h102.21c2.1,0,2.38,2.38,2.38,2.38v7.63c0,3.75-3.1,3.1-3.1,3.1h-102.14c-3.89,0-3.7,3.15-3.7,3.15,0,0,.28,47.55,1.39,58.65,1.11,11.1,8.97,9.44,8.97,9.44,0,0,40.24-.37,42.74,0,2.5.37,2.04,1.85,2.04,1.85,0,0,1.57,9.34,1.94,12.21.37,2.87-2.41,2.85-2.41,2.85,0,0-124.43.11-127.49,0-3.05-.11-2.31-1.28-2.31-1.28,0,0,.74-9.9,1.39-12.58.65-2.68,2.96-2.29,2.96-2.29h47.67c7.89,0,7.33-7.33,7.33-7.33v-14.94c0-8.09-9.11-9.11-9.11-9.11h-104.46c-1.86,0-1.86-1.86-1.86-1.86v-7.78c0-1.86,2.05-2.05,2.05-2.05h109.14c5.8,0,5.34-5.34,5.34-5.34v-16.88c0-7.72-7.17-7.17-7.17-7.17h-106.95c-2.6,0-2.13-2.13-2.13-2.13v-7.14c0-2.32,2.32-2.32,2.32-2.32h106.18c7.84,0,7.84-7.84,7.84-7.84v-14.02c0-9.58-9.02-9.02-9.02-9.02h-137.94c-11.38,0-10.82,10.82-10.82,10.82v91.59c0,12.77,11.29,11.29,11.29,11.29,0,0,38.14-.14,40.71,0,2.57.14,2.78,2.01,2.78,2.01,0,0,1.94,8.53,1.73,12.07s-3.75,3.26-3.75,3.26c0,0-116.92.07-119.07,0-2.15-.07-2.15-2.43-2.15-2.43,0,0,1.04-7.42,1.46-10.75.42-3.33,2.43-2.6,2.43-2.6h46.94c8.43,0,7.88-7.88,7.88-7.88v-14.58c0-9.09-7.98-7.98-7.98-7.98h-104.9c-2.63,0-2.35-2.35-2.35-2.35v-7.34c0-1.99,2.13-2.13,2.13-2.13h105.02c8.5,0,7.74-7.74,7.74-7.74v-14.29c0-8.19-8.05-8.05-8.05-8.05h-101.72c-3.12,0-2.78-2.78-2.78-2.78v-5.48c0-3.19,2.89-2.89,2.89-2.89h101.84c9.32,0,8.77-8.77,8.77-8.77v-14.39C437.93-.64,428.26,0,428.26,0h-131.93c-13.18,0-12.72,13.99-12.72,13.99v91.68c0,8.23,8.97,8.97,8.97,8.97h42.93c3.33,0,2.96,2.96,2.96,2.96,0,0,1.16,10.08,1.16,12.12s-2.22,2.22-2.22,2.22h-58.84c-7.96,0-9.12,7.96-9.12,7.96,0,0,0-.19,0,9.81s10.55,10.55,10.55,10.55h493.77c8.99,0,8.43-8.43,8.43-8.43ZM463.35,138.74c0,.75-.61,1.36-1.36,1.36h-3.1c-.75,0-1.36.61-1.36,1.36v13.68c0,.75-.61,1.36-1.36,1.36h-2c-.75,0-1.36-.61-1.36-1.36v-13.63c0-.75-.61-1.36-1.36-1.36h-2.77c-.75,0-1.36-.61-1.36-1.36v-1.51c0-.75.61-1.36,1.36-1.36h13.3c.75,0,1.36.61,1.36,1.36v1.45ZM480.67,156.25c-5.39,0-9.76-4.49-9.76-10.04s4.37-10.04,9.76-10.04,9.76,4.49,9.76,10.04-4.37,10.04-9.76,10.04ZM513.71,138.74c0,.75-.61,1.36-1.36,1.36h-3.1c-.75,0-1.36.61-1.36,1.36v13.68c0,.75-.61,1.36-1.36,1.36h-2c-.75,0-1.36-.61-1.36-1.36v-13.63c0-.75-.61-1.36-1.36-1.36h-2.77c-.75,0-1.36-.61-1.36-1.36v-1.51c0-.75.61-1.36,1.36-1.36h13.3c.75,0,1.36.61,1.36,1.36v1.45ZM530.08,156.25c-5.39,0-9.76-4.49-9.76-10.04s4.37-10.04,9.76-10.04,9.76,4.49,9.76,10.04-4.37,10.04-9.76,10.04ZM565.83,155.17h-1.92c-.28,0-.54-.16-.67-.42l-2.3-4.78c-.12-.26-.38-.42-.67-.42h-6.22c-.41,0-.74.33-.74.74v4.14c0,.41-.33.74-.74.74h-2.2c-.41,0-.74-.33-.74-.74v-16.42c0-.41.33-.74.74-.74h11.13c1.72.12,2.61,1.16,2.94,1.66l.5.82c1.27,2.09,1.39,4.68.32,6.88l-.97,1.99c-.1.2-.1.43,0,.63l2.22,4.88c.22.49-.13,1.05-.67,1.05ZM585.17,156.25c-5.39,0-9.76-4.49-9.76-10.04s4.37-10.04,9.76-10.04,9.76,4.49,9.76,10.04-4.37,10.04-9.76,10.04Z"/>
    </g>
  </g>
</svg>