<svg width="98" height="108" viewBox="0 0 98 108" fill="none" xmlns="http://www.w3.org/2000/svg">
<path d="M63.1381 55.6158H0.290039V1.34383H63.1381V55.6158ZM42.0181 37.6958V19.2638H21.41V37.6958H42.0181ZM73.506 58.1758V0.319824H95.7781V58.1758H73.506ZM52.2581 90.0478C54.3061 90.0478 56.1408 90.0478 57.7621 90.0478C59.4688 89.9625 61.0047 89.8345 62.3701 89.6638C63.6501 89.5785 64.802 89.4505 65.826 89.2798C66.8501 89.0238 67.746 88.7678 68.514 88.5118C69.282 88.2558 69.9221 87.9998 70.4341 87.7438C70.9461 87.4025 71.3727 87.0185 71.7141 86.5918C71.9701 86.2505 72.1407 85.8665 72.2261 85.4398C72.3967 84.9278 72.4821 84.4158 72.4821 83.9038C72.4821 83.4772 72.3967 83.0505 72.2261 82.6238C72.1407 82.1972 71.9701 81.7705 71.7141 81.3438C71.3727 81.0025 70.9461 80.6612 70.4341 80.3198C69.9221 79.9785 69.282 79.6798 68.514 79.4238C67.746 79.1678 66.8501 78.9545 65.826 78.7838C64.802 78.6132 63.6501 78.3998 62.3701 78.1438C61.0047 78.0585 59.4688 77.9732 57.7621 77.8878C56.1408 77.8025 54.3061 77.7598 52.2581 77.7598C50.1247 77.7598 48.2047 77.8025 46.498 77.8878C44.7914 77.9732 43.2981 78.0585 42.0181 78.1438C40.6527 78.3998 39.4581 78.6132 38.4341 78.7838C37.4101 78.9545 36.5568 79.1678 35.8741 79.4238C35.1061 79.6798 34.466 79.9785 33.954 80.3198C33.442 80.6612 33.0581 81.0025 32.8021 81.3438C32.5461 81.7705 32.3327 82.1972 32.162 82.6238C32.0767 83.0505 32.0341 83.4772 32.0341 83.9038C32.0341 84.4158 32.0767 84.9278 32.162 85.4398C32.3327 85.8665 32.5461 86.2505 32.8021 86.5918C33.0581 87.0185 33.442 87.4025 33.954 87.7438C34.466 87.9998 35.1061 88.2558 35.8741 88.5118C36.5568 88.7678 37.4101 89.0238 38.4341 89.2798C39.4581 89.4505 40.6527 89.5785 42.0181 89.6638C43.2981 89.8345 44.7914 89.9625 46.498 90.0478C48.2047 90.0478 50.1247 90.0478 52.2581 90.0478ZM52.2581 107.2C47.8207 107.2 43.7674 107.029 40.0981 106.688C36.4287 106.432 33.1861 106.048 30.3701 105.536C27.3834 105.024 24.6954 104.384 22.3061 103.616C20.0021 102.762 18.0394 101.824 16.4181 100.8C14.6261 99.7758 13.0901 98.6665 11.8101 97.4718C10.6154 96.2772 9.7194 94.9118 9.12207 93.3758C8.35407 92.0105 7.7994 90.5598 7.45807 89.0238C7.11674 87.4025 6.94604 85.6958 6.94604 83.9038C6.94604 82.3678 7.11674 80.8318 7.45807 79.2958C7.7994 77.7598 8.35407 76.2665 9.12207 74.8158C9.80474 73.4505 10.7434 72.1705 11.938 70.9758C13.218 69.6958 14.7541 68.5012 16.5461 67.3918C18.2527 66.3678 20.2581 65.4718 22.5621 64.7038C24.8661 63.8505 27.5114 63.0825 30.498 62.3998C33.314 61.8878 36.5567 61.4612 40.2261 61.1198C43.8954 60.7785 47.9061 60.6078 52.2581 60.6078C56.5247 60.6078 60.4501 60.7785 64.0341 61.1198C67.6181 61.4612 70.9034 61.8878 73.8901 62.3998C76.7061 63.0825 79.2661 63.8505 81.5701 64.7038C83.9594 65.4718 86.05 66.3678 87.842 67.3918C89.5487 68.5012 91.0421 69.6958 92.3221 70.9758C93.6021 72.1705 94.626 73.4505 95.394 74.8158C96.0767 76.2665 96.5887 77.7598 96.9301 79.2958C97.3567 80.8318 97.5701 82.3678 97.5701 83.9038C97.5701 85.6958 97.3567 87.4025 96.9301 89.0238C96.5887 90.5598 96.0767 92.0105 95.394 93.3758C94.626 94.9118 93.6021 96.2772 92.3221 97.4718C91.1274 98.6665 89.6767 99.7758 87.97 100.8C86.178 101.824 84.1301 102.762 81.826 103.616C79.522 104.384 76.9621 105.024 74.1461 105.536C71.1594 106.048 67.8314 106.432 64.162 106.688C60.578 107.029 56.6101 107.2 52.2581 107.2Z" fill="#FF3838"/>
</svg>
