<svg width="107" height="102" viewBox="0 0 107 102" fill="none" xmlns="http://www.w3.org/2000/svg">
<path d="M76.8631 66.112C77.1191 62.272 77.3324 58.432 77.5031 54.592C77.6737 50.752 77.8444 46.8693 78.0151 42.944C78.0151 41.0666 78.0151 39.1893 78.0151 37.312C78.1004 35.4346 78.1431 33.6 78.1431 31.808C78.1431 30.016 78.1431 28.2666 78.1431 26.56C78.2284 24.8533 78.2711 23.1466 78.2711 21.44H7.10306V0.959961H100.671C100.671 4.54397 100.671 7.99997 100.671 11.328C100.671 14.5706 100.671 17.6 100.671 20.416C100.586 23.4026 100.5 26.2613 100.415 28.992C100.33 31.6373 100.287 34.24 100.287 36.8C100.202 39.36 100.116 41.8773 100.031 44.352C99.9457 46.8266 99.9031 49.216 99.9031 51.52C99.8177 52.8 99.7324 54.0373 99.6471 55.232C99.5617 56.4266 99.4764 57.6213 99.3911 58.816C99.3057 60.096 99.2204 61.3333 99.1351 62.528C99.0497 63.7226 99.0071 64.9173 99.0071 66.112H76.8631ZM0.831055 101.824V81.344H106.687V101.824H0.831055Z" fill="#FF3838"/>
</svg>
