<svg width="112" height="107" viewBox="0 0 112 107" fill="none" xmlns="http://www.w3.org/2000/svg">
<path d="M29.944 21.4959C31.3093 21.4959 32.5466 21.4532 33.656 21.3679C34.7653 21.1972 35.7893 20.9412 36.728 20.5999C37.496 20.3439 38.0933 19.9599 38.52 19.4479C38.9466 18.9359 39.16 18.2959 39.16 17.5279C39.16 16.9306 38.9466 16.4186 38.52 15.9919C38.0933 15.4799 37.496 15.0106 36.728 14.5839C35.8746 14.3279 34.8506 14.1146 33.656 13.9439C32.5466 13.6879 31.3093 13.5599 29.944 13.5599C28.408 13.5599 27.0853 13.6879 25.976 13.9439C24.8666 14.1146 23.928 14.3279 23.16 14.5839C22.3066 15.0106 21.6666 15.4799 21.24 15.9919C20.8986 16.4186 20.728 16.9306 20.728 17.5279C20.728 18.2959 20.8986 18.9359 21.24 19.4479C21.6666 19.9599 22.3066 20.3439 23.16 20.5999C23.928 20.9412 24.8666 21.1972 25.976 21.3679C27.0853 21.4532 28.408 21.4959 29.944 21.4959ZM29.944 34.5519C25.08 34.5519 20.8133 34.2106 17.144 33.5279C13.56 32.8452 10.5733 31.7359 8.18398 30.1999C5.62398 28.8346 3.74664 27.1706 2.55198 25.2079C1.35731 23.1599 0.759976 20.8132 0.759976 18.1679C0.759976 15.0959 1.35731 12.4506 2.55198 10.2319C3.74664 8.01323 5.62398 6.17857 8.18398 4.72791C10.5733 3.36257 13.56 2.33857 17.144 1.65591C20.8133 0.887906 25.08 0.503906 29.944 0.503906C34.6373 0.503906 38.776 0.887906 42.36 1.65591C46.0293 2.33857 49.144 3.36257 51.704 4.72791C54.0933 6.17857 55.928 8.01323 57.208 10.2319C58.488 12.4506 59.128 15.0959 59.128 18.1679C59.128 20.8132 58.488 23.1599 57.208 25.2079C55.928 27.1706 54.0933 28.8346 51.704 30.1999C49.144 31.7359 46.0293 32.8452 42.36 33.5279C38.776 34.2106 34.6373 34.5519 29.944 34.5519ZM0.375977 37.6239H48.12C49.4 37.7092 50.5946 37.7519 51.704 37.7519C52.8986 37.7519 54.0506 37.7092 55.16 37.6239C56.184 37.6239 57.1653 37.6239 58.104 37.6239C59.0426 37.6239 59.9386 37.5812 60.792 37.4959C61.56 37.4959 62.2853 37.4959 62.968 37.4959C63.6506 37.4106 64.2906 37.2826 64.888 37.1119V3.3199H84.984V68.4719C81.9973 68.7279 79.0533 68.8986 76.152 68.9839C73.2506 68.9839 70.3493 68.9839 67.448 68.9839C64.4613 69.0692 61.3466 69.1119 58.104 69.1119C54.8613 69.1119 51.448 69.1119 47.864 69.1119V55.6719L57.848 55.5439C58.2746 55.5439 58.7866 55.5439 59.384 55.5439C60.0666 55.5439 60.792 55.5012 61.56 55.4159C62.2426 55.4159 62.84 55.4159 63.352 55.4159C63.9493 55.3306 64.4613 55.2026 64.888 55.0319V51.8319C63.864 52.0879 62.7546 52.2586 61.56 52.3439C60.3653 52.4292 59.0426 52.4719 57.592 52.4719C55.8 52.5572 53.8373 52.5999 51.704 52.5999C49.5706 52.5999 47.224 52.5999 44.664 52.5999H38.136V68.7279H14.84V52.5999H0.375977V37.6239ZM91.64 68.9839V3.3199H111.608V68.9839H91.64ZM90.104 72.6959H111.608V106.232H8.82398V72.5679H30.584V76.9199H90.104V72.6959ZM30.584 89.4639V93.0479H90.104V89.4639H30.584Z" fill="#FF3838"/>
</svg>
