<?xml version="1.0" encoding="UTF-8"?>
<svg id="_레이어_2" data-name="레이어 2" xmlns="http://www.w3.org/2000/svg" viewBox="0 0 358.52 28.11">
  <defs>
    <style>
      .cls-1 {
        fill: red;
      }
    </style>
  </defs>
  <g id="_레이어_1-2" data-name="레이어 1">
    <g>
      <path class="cls-1" d="M18.58.63l3.46,18.5h.11L23.51.63h6.66l-3.71,26.71h-7.27l-3.96-18.68h-.25l-4,18.68h-6.91L0,.63h6.66l1.4,18.5h.11L11.59.63h6.98Z"/>
      <path class="cls-1" d="M53.24,6.32h-14.08v4.86l13.39-.04v5.58h-13.39v4.93h8.53c.65,0,1.23,0,1.75-.02.52-.01,1-.04,1.46-.09.43-.02.85-.06,1.26-.11.41-.05.83-.11,1.26-.18v5.58c-.79.22-1.83.35-3.12.41s-2.43.09-3.44.09h-14V.63h20.38v5.69Z"/>
      <path class="cls-1" d="M56.7,27.34V.63h10.73c3.36,0,5.81.58,7.36,1.75,1.55,1.16,2.41,2.69,2.57,4.59.07.58.05,1.16-.05,1.76-.11.6-.29,1.18-.56,1.73-.26.53-.61,1.01-1.04,1.46-.43.44-.92.79-1.48,1.03,1.37.65,2.38,1.68,3.04,3.1s.92,2.88.77,4.39c-.24,2.23-1.12,3.94-2.65,5.13-1.52,1.19-3.74,1.78-6.64,1.78h-12.06ZM62.96,6.28v4.39h5.62c.79-.05,1.41-.26,1.85-.65.44-.38.67-.91.67-1.58s-.24-1.17-.72-1.57c-.48-.4-1.15-.59-2.02-.59h-5.4ZM62.96,16.11v5.58h5.54c1.25.02,2.1-.24,2.56-.79.46-.55.68-1.22.68-2.02,0-.72-.26-1.36-.79-1.93-.53-.56-1.44-.85-2.74-.85h-5.26Z"/>
      <path class="cls-1" d="M80.93.63h10.19c3.65,0,6.44.83,8.37,2.48,1.93,1.66,2.9,3.96,2.9,6.91,0,1.22-.24,2.39-.72,3.51-.48,1.12-1.16,2.09-2.05,2.93-.91.84-2.02,1.51-3.33,2-1.31.49-2.79.74-4.45.74h-4.54v8.14h-6.37V.63ZM87.3,13.48h4.82c1.37,0,2.38-.38,3.04-1.13s.99-1.58.99-2.47c0-.96-.34-1.78-1.03-2.47-.68-.68-1.66-1.03-2.93-1.03h-4.9v7.09Z"/>
      <path class="cls-1" d="M121.97,16.98l4.5,10.37h-6.98l-3.78-8.96h-4.39v8.96h-6.37V.63h10.19c3.65,0,6.44.76,8.37,2.29,1.93,1.52,2.9,3.76,2.9,6.71,0,1.58-.4,3.02-1.19,4.32-.79,1.3-1.87,2.3-3.24,3.02ZM111.31,12.69h4.82c1.37,0,2.38-.31,3.04-.94s.99-1.38.99-2.27c0-.96-.34-1.71-1.03-2.27-.68-.55-1.66-.83-2.93-.83h-4.9v6.3Z"/>
      <path class="cls-1" d="M143.35,28.03c-2.02,0-3.82-.32-5.4-.97s-2.92-1.57-4-2.77c-1.1-1.2-1.94-2.67-2.5-4.41-.56-1.74-.85-3.69-.85-5.85s.28-4.1.85-5.83c.56-1.73,1.4-3.19,2.5-4.39,1.08-1.2,2.41-2.13,4-2.79s3.38-.99,5.4-.99,3.82.33,5.42.99c1.6.66,2.95,1.59,4.05,2.79s1.95,2.66,2.54,4.39c.59,1.73.88,3.67.88,5.83s-.29,4.11-.88,5.85-1.43,3.21-2.54,4.41c-1.1,1.2-2.45,2.12-4.05,2.77-1.6.65-3.4.97-5.42.97ZM143.42,21.91c1.87,0,3.4-.71,4.57-2.12,1.17-1.42,1.76-3.33,1.76-5.76,0-1.13-.16-2.17-.49-3.13s-.76-1.8-1.31-2.52c-.55-.7-1.22-1.24-2-1.64-.78-.4-1.63-.59-2.54-.59s-1.79.2-2.57.59c-.78.4-1.45.94-2,1.64-.55.72-.98,1.56-1.3,2.52-.31.96-.47,2-.47,3.13,0,2.42.58,4.34,1.75,5.76,1.16,1.42,2.69,2.12,4.59,2.12Z"/>
      <path class="cls-1" d="M176,21.19c.46-.31.83-.82,1.12-1.51s.43-1.4.43-2.12h-5.51v-5.51h12.2v2.63c-.05.82-.1,1.6-.14,2.34-.05.74-.13,1.46-.25,2.16-.1.7-.26,1.37-.49,2.02-.23.65-.55,1.3-.95,1.94-.86,1.46-1.91,2.56-3.13,3.28-1.22.72-2.46,1.2-3.71,1.44-.7.14-1.45.23-2.27.25-.82.02-1.63-.01-2.45-.11-.84-.12-1.64-.29-2.41-.52-.77-.23-1.45-.52-2.05-.88-1.97-1.22-3.44-2.87-4.41-4.93-.97-2.06-1.46-4.61-1.46-7.63s.54-5.5,1.62-7.58c1.08-2.08,2.6-3.73,4.57-4.95.58-.36,1.24-.65,1.98-.88.74-.23,1.51-.39,2.3-.49s1.58-.14,2.38-.13,1.54.09,2.23.23c1.15.24,2.3.71,3.44,1.4s2.33,1.72,3.58,3.06l-3.89,4.03c-1.2-1.3-2.42-2.14-3.67-2.52-1.25-.38-2.48-.37-3.71.04-1.51.5-2.65,1.42-3.42,2.74-.77,1.32-1.15,3-1.15,5.04s.4,3.83,1.19,5.24,1.84,2.29,3.13,2.65c.72.22,1.54.28,2.47.18.92-.1,1.73-.4,2.43-.9Z"/>
      <path class="cls-1" d="M204.01,16.98l4.5,10.37h-6.98l-3.78-8.96h-4.39v8.96h-6.37V.63h10.19c3.65,0,6.44.76,8.37,2.29,1.93,1.52,2.9,3.76,2.9,6.71,0,1.58-.4,3.02-1.19,4.32-.79,1.3-1.87,2.3-3.24,3.02ZM193.35,12.69h4.82c1.37,0,2.38-.31,3.04-.94s.99-1.38.99-2.27c0-.96-.34-1.71-1.03-2.27-.68-.55-1.66-.83-2.93-.83h-4.9v6.3Z"/>
      <path class="cls-1" d="M235.19,27.34h-6.98l-1.91-4.86h-8.14l-1.76,4.86h-6.95L219.35.63h5.65l10.19,26.71ZM222.3,8.44l-2.41,8.28h4.68l-2.27-8.28Z"/>
      <path class="cls-1" d="M248.04,27.34l-4.82-17.32h-.18l-.14,17.32h-6.59l1.66-26.71h7.38l5.65,18.54h.18l5.69-18.54h7.38l1.66,26.71h-6.59l-.14-17.32h-.18l-4.82,17.32h-6.12Z"/>
      <path class="cls-1" d="M279.46,27.34l-4.82-17.32h-.18l-.14,17.32h-6.59l1.66-26.71h7.38l5.65,18.54h.18l5.69-18.54h7.38l1.66,26.71h-6.59l-.14-17.32h-.18l-4.82,17.32h-6.12Z"/>
      <path class="cls-1" d="M300.06.63h6.41v26.71h-6.41V.63Z"/>
      <path class="cls-1" d="M316.44,10.75v16.6h-6.34V.63h6.23l9.4,16.06V.63h6.34v26.71h-5.9l-9.72-16.6Z"/>
      <path class="cls-1" d="M350.28,21.19c.46-.31.83-.82,1.12-1.51s.43-1.4.43-2.12h-5.51v-5.51h12.2v2.63c-.05.82-.1,1.6-.14,2.34-.05.74-.13,1.46-.25,2.16-.1.7-.26,1.37-.49,2.02-.23.65-.55,1.3-.95,1.94-.86,1.46-1.91,2.56-3.13,3.28-1.22.72-2.46,1.2-3.71,1.44-.7.14-1.45.23-2.27.25-.82.02-1.63-.01-2.45-.11-.84-.12-1.64-.29-2.41-.52-.77-.23-1.45-.52-2.05-.88-1.97-1.22-3.44-2.87-4.41-4.93-.97-2.06-1.46-4.61-1.46-7.63s.54-5.5,1.62-7.58c1.08-2.08,2.6-3.73,4.57-4.95.58-.36,1.24-.65,1.98-.88.74-.23,1.51-.39,2.3-.49s1.58-.14,2.38-.13,1.54.09,2.23.23c1.15.24,2.3.71,3.44,1.4s2.33,1.72,3.58,3.06l-3.89,4.03c-1.2-1.3-2.42-2.14-3.67-2.52-1.25-.38-2.48-.37-3.71.04-1.51.5-2.65,1.42-3.42,2.74-.77,1.32-1.15,3-1.15,5.04s.4,3.83,1.19,5.24,1.84,2.29,3.13,2.65c.72.22,1.54.28,2.47.18.92-.1,1.73-.4,2.43-.9Z"/>
    </g>
  </g>
</svg>