<?xml version="1.0" encoding="UTF-8"?>
<svg id="_레이어_2" data-name="레이어 2" xmlns="http://www.w3.org/2000/svg" xmlns:xlink="http://www.w3.org/1999/xlink" viewBox="0 0 322.82 486.9">
  <defs>
    <style>
      .cls-1 {
        fill: #6b6b6a;
      }

      .cls-2 {
        clip-path: url(#clippath-6);
      }

      .cls-3 {
        clip-path: url(#clippath-7);
      }

      .cls-4 {
        stroke-width: .93px;
      }

      .cls-4, .cls-5, .cls-6, .cls-7, .cls-8, .cls-9, .cls-10, .cls-11, .cls-12, .cls-13, .cls-14, .cls-15, .cls-16, .cls-17, .cls-18, .cls-19, .cls-20, .cls-21, .cls-22, .cls-23 {
        stroke-miterlimit: 10;
      }

      .cls-4, .cls-7, .cls-14, .cls-16, .cls-18, .cls-21, .cls-22 {
        stroke: #3a2900;
      }

      .cls-4, .cls-18 {
        fill: #dddcd7;
      }

      .cls-24 {
        clip-path: url(#clippath-4);
      }

      .cls-25 {
        fill: #33322e;
      }

      .cls-5 {
        fill: #514e46;
      }

      .cls-5, .cls-13, .cls-19 {
        stroke: #3d3726;
      }

      .cls-26 {
        fill: #54514a;
      }

      .cls-27, .cls-12 {
        fill: #6a6289;
      }

      .cls-28 {
        fill: #494846;
      }

      .cls-29 {
        fill: #fff;
      }

      .cls-6 {
        fill: #3a342d;
      }

      .cls-6, .cls-10 {
        stroke: #211f1b;
      }

      .cls-30 {
        fill: #536805;
      }

      .cls-7, .cls-31 {
        fill: #56544e;
      }

      .cls-32, .cls-16 {
        fill: #68655a;
      }

      .cls-33, .cls-21 {
        fill: #78a400;
      }

      .cls-34 {
        clip-path: url(#clippath-1);
      }

      .cls-8, .cls-9, .cls-12, .cls-17, .cls-23 {
        stroke: #1c1b18;
      }

      .cls-8, .cls-35 {
        fill: #424140;
      }

      .cls-9, .cls-13, .cls-14, .cls-20 {
        fill: none;
      }

      .cls-10 {
        fill: #b2b2a9;
      }

      .cls-36 {
        clip-path: url(#clippath-5);
      }

      .cls-37 {
        clip-path: url(#clippath-8);
      }

      .cls-11 {
        fill: #2d2821;
        stroke: #1e1a13;
      }

      .cls-38 {
        clip-path: url(#clippath-3);
      }

      .cls-15, .cls-39 {
        fill: #e0d5a9;
      }

      .cls-15, .cls-20 {
        stroke: #23201e;
      }

      .cls-40 {
        fill: #565349;
      }

      .cls-17, .cls-41 {
        fill: #9b9998;
      }

      .cls-18 {
        stroke-width: .91px;
      }

      .cls-42, .cls-19 {
        fill: #68655c;
      }

      .cls-43 {
        fill: #504c68;
      }

      .cls-44 {
        clip-path: url(#clippath-2);
      }

      .cls-45 {
        fill: #474942;
      }

      .cls-22 {
        fill: #505a68;
      }

      .cls-46 {
        fill: #999b86;
      }

      .cls-23 {
        fill: #2f2e38;
      }

      .cls-47 {
        clip-path: url(#clippath);
      }

      .cls-48 {
        fill: #191615;
      }
    </style>
    <clipPath id="clippath">
      <path id="_오른팔-2" data-name="오른팔" class="cls-7" d="M256.09,174.89c1.93,2.13,15.59,17.25,18.75,23.77.18.36-.16.77-.55.68-1-.23-2.4-.43-2.06.37.5,1.18,35.86,79.06,38.12,91.48.07.39-.34.7-.7.51-1.27-.66-3.35-1.09-.92,5.02,3.31,8.3,11.81,20.49,9.24,42.07,0,0-.86,9.35-11.45,10.63s-28.52-7.42-31.4-12.81c-2.82-5.29-40.03-113.65-41.4-117.64-.03-.08-.03-.16-.02-.24l6.64-37.32c.03-.16.14-.3.29-.36l14.9-6.28c.19-.08.41-.04.54.12Z"/>
    </clipPath>
    <clipPath id="clippath-1">
      <path id="_몸통-2" data-name="몸통" class="cls-16" d="M102.38,87.74c-.48.11-.88-.39-.78-.88.13-.68,1.25-2.07,1.07-2.25-.42-.41-1.6,1.04-2.27.72s-.26-1.37-.26-1.37c0,0,.35-.74.98-1.51.4-.48.79-1.26-.59-1.21-.52.02-.97-.09-1.16-.31-.61-.7.67-1.69.67-1.69l6.57-6.51s1.72-1.09.99-3.83-10.56-30.75-10.94-31.81c0-.02-.02-.04-.03-.06-.31-.64-5.2-10.76-8.01-12.82,0,0-.83-.89-1.68.32s-7.61,52.41-7.61,52.41c0,0-.38,3.61,3.73,4.15,3.03.4,5.78.88,7.03,1.1.54.1.79.74.45,1.17-.25.32-.72.94-1.23,1.61-1.29,1.7-.35.95.36.95l2.04-.44s1.62-.38-.85,1.95c-2.34,2.2-.46,1.39.32,1.41,1.08.02,1.77.19,1.05.66-.83.53-2.29,1.19-3.34,2.14-1.75,1.59-.32,1.41.44,1.37,1.85-.11,3.69,0,2.8.99,0,0-5.14,1.86-8.49,4.32s-9.49,7.48-9.1,7.6c.51.16,2.05-.41,1.81.06,0,0-2.85,1.77-4.32,3.28s-4.73,6.33-4.4,6.68c.37.39,1.9-1.79,2.15-1.09,0,0-.11.8-1.14,1.95s-6.82,9.56-7.17,10.1c-.01.02-.02.04-.03.05-.37.72-7.85,15.33-13.11,25.93-1.22,2.47-2.22,5.05-2.97,7.7-1.25,4.43-.48,1.55-1.93,8.84-.14.68-.26,1.37-.36,2.06-.14.95-.45,2.68-1.04,4.02-.85,1.96-4.85,6.89-7.11,11.11-.77,1.44-1.35,2.65-1.62,3.67-.41,1.54.11,1.6,1.06.87.21-.16.48-.21.73-.21,1.34,0-.95,1.23-2.78,5.49-.27.64-1.13,3.21-1.34,3.78-.25.71-.35,1.44-.46,2.19-.21,1.31-.7,1.91-1.33,4.03,0,0-8.86,17.95-13.09,30.88-3.43,10.48-6.93,20.43-7.13,26.83-.06,1.87.51,1.09,1.05.8.15-.08.41-.08.38.12-.07.57-.45,1.39-1.38,4.34-.95,3.02-2.7,11.99-2.03,12.16.35.09.73-.96,1.24-.7s-1.69,9.89-2.43,14.17c-.7,4.09-5.78,23.58-5.27,35.02.07,1.68.48.89.95.72.23-.08.58-.16.68.11.12.32.35.58.16,1.52s-2.24,44.65-.48,44.47c.27-.03.49-1.09.94-.53.34.42-.05,3.06.26,4.26.63,2.46.59.74.85.73.23,0,.27.34.47,1.22.38,1.68.54,5.18,2.36,11.02.35,1.12.52.63.9.52.19-.06.42-.07.68.03,0,0,.43.19.32,1.4s-1.37,24.08,16.42,48.18c.99,1.34.89.62,1.25.13.21-.29.52-.25.65-.21.53.14.86.9,1.35,1.71.93,1.53,12.06,17.42,20.15,24.4.76.66,1.18,1.17,1.78,1.69.73.64,1.46,1.27,1.73,1.13,0,0-.59-2.41-.01-2.26,0,0,.23-.01.69.51s7.87,8.29,29.48,11.1c0,0,0,0,.01,0,.23.05,19.18,4.3,49.7,4.17,30.7-.13,27.09,1.62,65.55-1.62s57.56-27.89,58.36-28.9c.02-.02.03-.04.06-.06.55-.5,8.42-7.7,11.31-17.24.2-.65,1.01-.79,1.31-.17,0,.02.12.41.12.43.16.74.12,3.68,1.39-.59,1.39-4.67,4.94-13.49,6.9-20.24,1.71-5.9,5.27-18.71,6.97-24.86.64-2.32,1.16-4.67,1.54-7.05,1.28-7.94,4.23-26.97,4.9-36.97.85-12.85-1.55-23.59-1.19-23.87s.71,2.53.99,1.86c.31-.72-4.95-50.26-10.06-63.03,0,0,.7.97,1.96,1.91,1.36,1.02-2.37-29.02-11.39-41.7,0,0-.44-.64.46-.27.51.21,1.33,1.08.85-.94-1.79-7.5-12.32-40.35-17.29-55.16-5.62-16.72-6.89-29.62-31.91-65.87,0,0-.15-.27.29-.45.49-.2.66-.81.29-1.2-2.43-2.49-8.98-8.85-15.69-12.32,0,0-2.23-1.21,2.51-1.81.8-.1,2.44-.53.11-1.45-5.42-2.16.82-1,1.71-1.53.96-.56-6.16-1.68-3.53-2.45s8.64-3.62,8.64-3.62c0,0,2-.47,1.57-3.74s-1.45-39.83-1.49-41.28c0-.03,0-.06-.01-.09-.14-.72-2.02-9.58-6.27-8.89s-11.11,22.72-11.11,22.72l-7.38,23.61s-.88,3.2,3.13,4.53c.04.01.08.03.11.05.38.25,2.9,1.92,4.08,3.41.54.69-.15,1.03-.97,1.49-2.01,1.13-.65,1.18.02,1.4,1.92.65,3.34.83.34,2.05-2.36.95-.86,1.18-.14,1.44,2.51.91,3.39,3.97-4.73,1.32,0,0-15.82-4.28-41.86-3.39-29.87,1.02-43.91,4.85-49.9,6.22Z"/>
    </clipPath>
    <clipPath id="clippath-2">
      <path id="_배-2" data-name="배" class="cls-15" d="M151.93,194.36s13.39-1.56,16.54-1.73c0,0-2.9,1.55-1.98,1.94s3.32-.51,3.32-.51c0,0,2.68-.77,5.71-.8,0,0-1.6,1.63-.45,2.17,0,0,1.18.1,1.91-.13s3.32-.83,5.3-.8,6.38.03,8.07.8c0,0-5.68.83-5.14,1.5s2.14.32,2.14.32c0,0,2.07-.58,10.6.09,0,0,5.04.51,7.82,2.56s12.54,2.14,12.54,2.14c0,0-4.79.64-3.41,2.11s1.69.29,5.68,1.31,17.2,12.05,18.82,14.48c0,0-1.8,2.16.34,2.89s6.83,7.18,6.83,7.18c0,0-1.85-1.02-1.4,0s5.78,5.01,7.82,11.11c2.04,6.1,7.21,14.27,7.21,14.27,0,0-2.04.26,0,4.09s13.02,28.12,15.83,37.48c0,0-1.87-.66-.43,4.32s2.34,19.19,2.34,19.19c0,0,.26,11.74-.3,15.49-.55,3.74-1.91,7.28-1.32,8.77,0,0-4.38,12.98-3.74,17.28.64,4.3-.98,17.11-.98,17.11,0,0-2.77,9.02-4.04,9.06,0,0-7.74,26.77-26.64,40.81,0,0-22.89,19.66-33.7,24.17,0,0,.64-2.26-1.57-1.11s-19.53,11.02-22.26,11.83c0,0,1.91-2.51.89-2.34s-4.13,4.04-7.15,4.85c0,0,0-1.83-1.4-1.45s-27.34,11.15-31.55,10.89c0,0,3.11-2.09,1.06-2.04s-21.15-2.13-27.57-3.91c0,0-4.94-2.81-7.32-3.15s-5.57.04-5.57.04c0,0,1.23-2.77-10-4.98s-52.23-24.98-63.98-45.06c0,0-9.06-13.77-10.72-18.04,0,0,2.04-.77-1.21-5.55-3.26-4.79-6.64-28.21-5.87-40.28,0,0-1.34,2.36-1.72,6.32-.38,3.96-.51-16.28,2.11-21.77,0,0-2.01.51-2.31,3.38s-.88-6.57,2.06-9.19c0,0-1.09-15.26,3.32-23.68,0,0-2.49,1.47-3.26,3.06s5.57-22.4,11.32-33.13c5.74-10.72,12.89-20.34,12.89-20.34,0,0-1.66-.83-2.87.77-1.21,1.6,7.72-13.53,16.09-18.64,0,0-.64-.77-2.11-.06s24.28-39.23,44.45-44.34c0,0,6.6-2.89,25.37-2.34,18.77.54,33.61,1.62,33.61,1.62Z"/>
    </clipPath>
    <clipPath id="clippath-3">
      <path class="cls-19" d="M153.42,248.23s-1.74-1.36-3.78-1.06c0,0-11.68,4.72-17.17,17.36-5.49,12.64,11.62-6.19,14.3-4.47,2.68,1.72,2.55,3.8,5.11.98,0,0,.66-.33,1.34.42.68.74,1.87,1,3.38.81,1.51-.19,5.11,5.11,8.66,4.96,3.55-.15,1.17-4,1.17-4,0,0-5.93-11.86-13.01-14.99Z"/>
    </clipPath>
    <clipPath id="clippath-4">
      <path class="cls-21" d="M107.05,83.1s6-7.4,49.02-7.66c0,0,3.74-.32,7,1.66,3.26,1.98,5.49-4.47,17.43-5.04s13.09,1.47,13.09,1.47c0,0,3.06,3.57,1.53,5.04-1.53,1.47-2.36.83-2.49,2.49s-1.4,8.3-4.34,11.17c-2.94,2.87-5.81,4.91-11.87,3.83s-7.53-4.66-7.53-4.66c0,0-2.81-2.94-6.45-.83-3.64,2.11-10.5,8.36-16.2,9.89-5.7,1.53-14.25.19-16.67-.89-2.43-1.09-12.19-6.45-15.64-9-3.45-2.55-6.87-5.49-6.87-5.49,0,0-1-.74,0-1.98Z"/>
    </clipPath>
    <clipPath id="clippath-5">
      <polygon class="cls-17" points="146.68 174.59 146.68 32.67 149.38 32.67 149.38 181.61 146.68 181.61 146.68 174.59"/>
    </clipPath>
    <clipPath id="clippath-6">
      <path class="cls-8" d="M144.8,174.65v42.81s.09,9.62,6.72,9.28,7.49-7.66,7.49-7.66v-22.04s-.21-2-1.79-1.96-2.34.81-2.38,1.83,0,16.94,0,16.94c0,0,.13,3.36-2.51,3.49,0,0-.89.21-.89-.89v-41.79s-.38-2.02-3.06-2.02-3.57,1.15-3.57,2.02Z"/>
    </clipPath>
    <clipPath id="clippath-7">
      <path class="cls-12" d="M206.45,4.08c-20.73-3.83-51.7-3.57-51.7-3.57-39.7.13-61.91,6.38-61.91,6.38C51.47,13.14,26.32,59.61,26.32,59.61l12.52-5.18c5.12-2.12,10.55-3.4,16.08-3.78l12.37-.86s45.79-13.7,93.62-3.49c0,0,38.3-10.72,74.04,7.15,0,0,17.62-4.77,36.77,6.89,0,0-22.37-48.34-65.27-56.26Z"/>
    </clipPath>
    <clipPath id="clippath-8">
      <path class="cls-16" d="M52.61,191.18s6.47-3.88,6.47-2.43-2.86,2.56-.84,2.43,7.73-3.5,9.18-2.75-5.02,2.23-3.15,2.76,7.15-1.88,8.43-1.44-1.79,2.14,0,2.31,43.74-8.09,56.6-2.64c12.85,5.45,9.45,32.09,9.45,32.09,0,0-1.53,14.38-30.13,35.06-28.6,20.68-85.53,27.23-86.13,18.47"/>
    </clipPath>
  </defs>
  <g id="_토토로" data-name="토토로">
    <g id="Totoro01">
      <path class="cls-23" d="M63.86,66.5s-28.43-12.26-37.53-6.89l33.28-24.26,106.64-4.94,68.81,8.17,25.79,13.28,11.36,9.06s-36.06,1.72-41.74,8.62c0,0-30.91-12.98-76.36-1.49,0,0-35.11-12.47-90.23-1.55Z"/>
      <g>
        <path id="_오른팔" data-name="오른팔" class="cls-31" d="M256.09,174.89c1.93,2.13,15.59,17.25,18.75,23.77.18.36-.16.77-.55.68-1-.23-2.4-.43-2.06.37.5,1.18,35.86,79.06,38.12,91.48.07.39-.34.7-.7.51-1.27-.66-3.35-1.09-.92,5.02,3.31,8.3,11.81,20.49,9.24,42.07,0,0-.86,9.35-11.45,10.63s-28.52-7.42-31.4-12.81c-2.82-5.29-40.03-113.65-41.4-117.64-.03-.08-.03-.16-.02-.24l6.64-37.32c.03-.16.14-.3.29-.36l14.9-6.28c.19-.08.41-.04.54.12Z"/>
        <g class="cls-47">
          <path class="cls-28" d="M274.63,185.74s24.59,95.32,24.21,110.3c-.38,14.98,0,72.85,0,72.85l-26.25-39.15-17.9-165.63,19.94,21.63Z"/>
        </g>
        <path id="_오른팔-3" data-name="오른팔" class="cls-14" d="M256.09,174.89c1.93,2.13,15.59,17.25,18.75,23.77.18.36-.16.77-.55.68-1-.23-2.4-.43-2.06.37.5,1.18,35.86,79.06,38.12,91.48.07.39-.34.7-.7.51-1.27-.66-3.35-1.09-.92,5.02,3.31,8.3,11.81,20.49,9.24,42.07,0,0-.86,9.35-11.45,10.63s-28.52-7.42-31.4-12.81c-2.82-5.29-40.03-113.65-41.4-117.64-.03-.08-.03-.16-.02-.24l6.64-37.32c.03-.16.14-.3.29-.36l14.9-6.28c.19-.08.41-.04.54.12Z"/>
      </g>
      <path class="cls-22" d="M312.71,344.54c-.63-.82-.8-1.92-.4-2.88.28-.67.8-1.35,1.77-1.72,2.38-.93,3.93,2.65,3.93,2.65,0,0,6.32,14.31,3.66,18.12,0,0-1,.57-2.03-1.95s-1.38-6.93-5.04-11.76l-1.88-2.46Z"/>
      <path class="cls-22" d="M307.38,346.19s1.34-1.22,2.37-.51,2.18,2.35,2.02,3.86-1.03,11.41-3,12.59c0,0-1.47.28-1.58-2.11-.11-2.39.62-8.53.17-9.58s-.58-3.38.02-4.25Z"/>
      <path class="cls-22" d="M297.03,346.21s.96-2.33,2.95-1.84,1.86,3.42,1.86,3.42c0,0-.25,7.18-3.6,10.78,0,0-2.02,2.26-2.37-.74,0,0-.34-8.66,1.16-11.63Z"/>
      <g>
        <path id="_몸통" data-name="몸통" class="cls-32" d="M102.38,87.74c-.48.11-.88-.39-.78-.88.13-.68,1.25-2.07,1.07-2.25-.42-.41-1.6,1.04-2.27.72s-.26-1.37-.26-1.37c0,0,.35-.74.98-1.51.4-.48.79-1.26-.59-1.21-.52.02-.97-.09-1.16-.31-.61-.7.67-1.69.67-1.69l6.57-6.51s1.72-1.09.99-3.83-10.56-30.75-10.94-31.81c0-.02-.02-.04-.03-.06-.31-.64-5.2-10.76-8.01-12.82,0,0-.83-.89-1.68.32s-7.61,52.41-7.61,52.41c0,0-.38,3.61,3.73,4.15,3.03.4,5.78.88,7.03,1.1.54.1.79.74.45,1.17-.25.32-.72.94-1.23,1.61-1.29,1.7-.35.95.36.95l2.04-.44s1.62-.38-.85,1.95c-2.34,2.2-.46,1.39.32,1.41,1.08.02,1.77.19,1.05.66-.83.53-2.29,1.19-3.34,2.14-1.75,1.59-.32,1.41.44,1.37,1.85-.11,3.69,0,2.8.99,0,0-5.14,1.86-8.49,4.32s-9.49,7.48-9.1,7.6c.51.16,2.05-.41,1.81.06,0,0-2.85,1.77-4.32,3.28s-4.73,6.33-4.4,6.68c.37.39,1.9-1.79,2.15-1.09,0,0-.11.8-1.14,1.95s-6.82,9.56-7.17,10.1c-.01.02-.02.04-.03.05-.37.72-7.85,15.33-13.11,25.93-1.22,2.47-2.22,5.05-2.97,7.7-1.25,4.43-.48,1.55-1.93,8.84-.14.68-.26,1.37-.36,2.06-.14.95-.45,2.68-1.04,4.02-.85,1.96-4.85,6.89-7.11,11.11-.77,1.44-1.35,2.65-1.62,3.67-.41,1.54.11,1.6,1.06.87.21-.16.48-.21.73-.21,1.34,0-.95,1.23-2.78,5.49-.27.64-1.13,3.21-1.34,3.78-.25.71-.35,1.44-.46,2.19-.21,1.31-.7,1.91-1.33,4.03,0,0-8.86,17.95-13.09,30.88-3.43,10.48-6.93,20.43-7.13,26.83-.06,1.87.51,1.09,1.05.8.15-.08.41-.08.38.12-.07.57-.45,1.39-1.38,4.34-.95,3.02-2.7,11.99-2.03,12.16.35.09.73-.96,1.24-.7s-1.69,9.89-2.43,14.17c-.7,4.09-5.78,23.58-5.27,35.02.07,1.68.48.89.95.72.23-.08.58-.16.68.11.12.32.35.58.16,1.52s-2.24,44.65-.48,44.47c.27-.03.49-1.09.94-.53.34.42-.05,3.06.26,4.26.63,2.46.59.74.85.73.23,0,.27.34.47,1.22.38,1.68.54,5.18,2.36,11.02.35,1.12.52.63.9.52.19-.06.42-.07.68.03,0,0,.43.19.32,1.4s-1.37,24.08,16.42,48.18c.99,1.34.89.62,1.25.13.21-.29.52-.25.65-.21.53.14.86.9,1.35,1.71.93,1.53,12.06,17.42,20.15,24.4.76.66,1.18,1.17,1.78,1.69.73.64,1.46,1.27,1.73,1.13,0,0-.59-2.41-.01-2.26,0,0,.23-.01.69.51s7.87,8.29,29.48,11.1c0,0,0,0,.01,0,.23.05,19.18,4.3,49.7,4.17,30.7-.13,27.09,1.62,65.55-1.62s57.56-27.89,58.36-28.9c.02-.02.03-.04.06-.06.55-.5,8.42-7.7,11.31-17.24.2-.65,1.01-.79,1.31-.17,0,.02.12.41.12.43.16.74.12,3.68,1.39-.59,1.39-4.67,4.94-13.49,6.9-20.24,1.71-5.9,5.27-18.71,6.97-24.86.64-2.32,1.16-4.67,1.54-7.05,1.28-7.94,4.23-26.97,4.9-36.97.85-12.85-1.55-23.59-1.19-23.87s.71,2.53.99,1.86c.31-.72-4.95-50.26-10.06-63.03,0,0,.7.97,1.96,1.91,1.36,1.02-2.37-29.02-11.39-41.7,0,0-.44-.64.46-.27.51.21,1.33,1.08.85-.94-1.79-7.5-12.32-40.35-17.29-55.16-5.62-16.72-6.89-29.62-31.91-65.87,0,0-.15-.27.29-.45.49-.2.66-.81.29-1.2-2.43-2.49-8.98-8.85-15.69-12.32,0,0-2.23-1.21,2.51-1.81.8-.1,2.44-.53.11-1.45-5.42-2.16.82-1,1.71-1.53.96-.56-6.16-1.68-3.53-2.45s8.64-3.62,8.64-3.62c0,0,2-.47,1.57-3.74s-1.45-39.83-1.49-41.28c0-.03,0-.06-.01-.09-.14-.72-2.02-9.58-6.27-8.89s-11.11,22.72-11.11,22.72l-7.38,23.61s-.88,3.2,3.13,4.53c.04.01.08.03.11.05.38.25,2.9,1.92,4.08,3.41.54.69-.15,1.03-.97,1.49-2.01,1.13-.65,1.18.02,1.4,1.92.65,3.34.83.34,2.05-2.36.95-.86,1.18-.14,1.44,2.51.91,3.39,3.97-4.73,1.32,0,0-15.82-4.28-41.86-3.39-29.87,1.02-43.91,4.85-49.9,6.22Z"/>
        <g class="cls-34">
          <path class="cls-45" d="M31.91,175.47s55.06,1.5,64.33,7,42.33,60.29,42.33,60.29l-13.46,214.34s-21.45,20.72-82.98,22.51l44.68,13.79,198.38,8.42,13.66-82.72s-20.35-276.07-20.83-279.35-34.74-96.93-34.74-96.93c0,0-50.77-17.42-55.37-15.89-4.6,1.53-118.61,5.74-118.61,5.74L31.91,175.47Z"/>
          <path class="cls-25" d="M111.62,85.7c-.47-.59,1.33,21.88,32.09,22.01,0,0,15.69.26,26.93-8.94,0,0,1.91-2.17,6.38,1.15,0,0,7.53,5.62,17.74-.64,10.21-6.26-4.04-29.73-4.04-29.73l-79.1,16.15"/>
        </g>
        <path id="_몸통-3" data-name="몸통" class="cls-14" d="M102.38,87.74c-.48.11-.88-.39-.78-.88.13-.68,1.25-2.07,1.07-2.25-.42-.41-1.6,1.04-2.27.72s-.26-1.37-.26-1.37c0,0,.35-.74.98-1.51.4-.48.79-1.26-.59-1.21-.52.02-.97-.09-1.16-.31-.61-.7.67-1.69.67-1.69l6.57-6.51s1.72-1.09.99-3.83-10.56-30.75-10.94-31.81c0-.02-.02-.04-.03-.06-.31-.64-5.2-10.76-8.01-12.82,0,0-.83-.89-1.68.32s-7.61,52.41-7.61,52.41c0,0-.38,3.61,3.73,4.15,3.03.4,5.78.88,7.03,1.1.54.1.79.74.45,1.17-.25.32-.72.94-1.23,1.61-1.29,1.7-.35.95.36.95l2.04-.44s1.62-.38-.85,1.95c-2.34,2.2-.46,1.39.32,1.41,1.08.02,1.77.19,1.05.66-.83.53-2.29,1.19-3.34,2.14-1.75,1.59-.32,1.41.44,1.37,1.85-.11,3.69,0,2.8.99,0,0-5.14,1.86-8.49,4.32s-9.49,7.48-9.1,7.6c.51.16,2.05-.41,1.81.06,0,0-2.85,1.77-4.32,3.28s-4.73,6.33-4.4,6.68c.37.39,1.9-1.79,2.15-1.09,0,0-.11.8-1.14,1.95s-6.82,9.56-7.17,10.1c-.01.02-.02.04-.03.05-.37.72-7.85,15.33-13.11,25.93-1.22,2.47-2.22,5.05-2.97,7.7-1.25,4.43-.48,1.55-1.93,8.84-.14.68-.26,1.37-.36,2.06-.14.95-.45,2.68-1.04,4.02-.85,1.96-4.85,6.89-7.11,11.11-.77,1.44-1.35,2.65-1.62,3.67-.41,1.54.11,1.6,1.06.87.21-.16.48-.21.73-.21,1.34,0-.95,1.23-2.78,5.49-.27.64-1.13,3.21-1.34,3.78-.25.71-.35,1.44-.46,2.19-.21,1.31-.7,1.91-1.33,4.03,0,0-8.86,17.95-13.09,30.88-3.43,10.48-6.93,20.43-7.13,26.83-.06,1.87.51,1.09,1.05.8.15-.08.41-.08.38.12-.07.57-.45,1.39-1.38,4.34-.95,3.02-2.7,11.99-2.03,12.16.35.09.73-.96,1.24-.7s-1.69,9.89-2.43,14.17c-.7,4.09-5.78,23.58-5.27,35.02.07,1.68.48.89.95.72.23-.08.58-.16.68.11.12.32.35.58.16,1.52s-2.24,44.65-.48,44.47c.27-.03.49-1.09.94-.53.34.42-.05,3.06.26,4.26.63,2.46.59.74.85.73.23,0,.27.34.47,1.22.38,1.68.54,5.18,2.36,11.02.35,1.12.52.63.9.52.19-.06.42-.07.68.03,0,0,.43.19.32,1.4s-1.37,24.08,16.42,48.18c.99,1.34.89.62,1.25.13.21-.29.52-.25.65-.21.53.14.86.9,1.35,1.71.93,1.53,12.06,17.42,20.15,24.4.76.66,1.18,1.17,1.78,1.69.73.64,1.46,1.27,1.73,1.13,0,0-.59-2.41-.01-2.26,0,0,.23-.01.69.51s7.87,8.29,29.48,11.1c0,0,0,0,.01,0,.23.05,19.18,4.3,49.7,4.17,30.7-.13,27.09,1.62,65.55-1.62s57.56-27.89,58.36-28.9c.02-.02.03-.04.06-.06.55-.5,8.42-7.7,11.31-17.24.2-.65,1.01-.79,1.31-.17,0,.02.12.41.12.43.16.74.12,3.68,1.39-.59,1.39-4.67,4.94-13.49,6.9-20.24,1.71-5.9,5.27-18.71,6.97-24.86.64-2.32,1.16-4.67,1.54-7.05,1.28-7.94,4.23-26.97,4.9-36.97.85-12.85-1.55-23.59-1.19-23.87s.71,2.53.99,1.86c.31-.72-4.95-50.26-10.06-63.03,0,0,.7.97,1.96,1.91,1.36,1.02-2.37-29.02-11.39-41.7,0,0-.44-.64.46-.27.51.21,1.33,1.08.85-.94-1.79-7.5-12.32-40.35-17.29-55.16-5.62-16.72-6.89-29.62-31.91-65.87,0,0-.15-.27.29-.45.49-.2.66-.81.29-1.2-2.43-2.49-8.98-8.85-15.69-12.32,0,0-2.23-1.21,2.51-1.81.8-.1,2.44-.53.11-1.45-5.42-2.16.82-1,1.71-1.53.96-.56-6.16-1.68-3.53-2.45s8.64-3.62,8.64-3.62c0,0,2-.47,1.57-3.74s-1.45-39.83-1.49-41.28c0-.03,0-.06-.01-.09-.14-.72-2.02-9.58-6.27-8.89s-11.11,22.72-11.11,22.72l-7.38,23.61s-.88,3.2,3.13,4.53c.04.01.08.03.11.05.38.25,2.9,1.92,4.08,3.41.54.69-.15,1.03-.97,1.49-2.01,1.13-.65,1.18.02,1.4,1.92.65,3.34.83.34,2.05-2.36.95-.86,1.18-.14,1.44,2.51.91,3.39,3.97-4.73,1.32,0,0-15.82-4.28-41.86-3.39-29.87,1.02-43.91,4.85-49.9,6.22Z"/>
      </g>
      <path id="L_흰자" class="cls-18" d="M101.35,113.94s-14.57-3.91-19.14,10.61c-4.57,14.52,6.17,18.31,6.17,18.31,0,0,5.26,2.67,13.54-2.19,8.28-4.86,6.17-18.01,5.71-19.85s-2.17-4.98-6.28-6.87Z"/>
      <path id="R_흰자" class="cls-4" d="M198.62,113.76s-8.96,2.58-7.8,15.56c1.16,12.98,14.32,12.8,14.32,12.8,0,0,8.56,1.02,11.87-7.99,3.32-9.01-4.07-17.49-4.07-17.49,0,0-4.13-5.77-14.32-2.88Z"/>
      <path id="R_눈동자" class="cls-6" d="M97.52,120.73s-5.97.54-5.68,7.05c.29,6.51,5.9,6.57,5.9,6.57,0,0,4.66.22,5.74-6.22s-4.12-7.91-5.97-7.4Z"/>
      <path id="L_눈동자" class="cls-6" d="M202.71,119.9s-5.4.4-4.38,7.47c1.02,7.06,6.51,5.4,6.51,5.4,0,0,4.21-.15,3.87-6.35-.34-6.2-4.35-7.02-6-6.52Z"/>
      <ellipse id="R_안광" class="cls-29" cx="94.39" cy="126.85" rx="1.85" ry="2.21"/>
      <ellipse id="L_안광" class="cls-29" cx="200.56" cy="125.78" rx="1.85" ry="2.21"/>
      <path id="_코" data-name="코" class="cls-11" d="M131.71,128.18s6.26-4.21,17.11-4.02,16.85,2.01,16.85,2.01c0,0,3.83,1.5,2.81,2.78-1.02,1.28-2.11,1.21-3.57,1.21s-3.77-2.02-5.3-2.28-2.6,2.38-2.6,2.38c0,0-.55,2.13-2.04,2.85s-7.36,1.49-9.4,0-2.94-4.06-2.94-4.06c0,0-1.57-2.33-3.23-.41-1.66,1.91-2.3,2.55-5.62,2.77s-3.53-1.11-3.53-1.11c0,0-.78-.94,1.47-2.13Z"/>
      <g>
        <path id="_배" data-name="배" class="cls-39" d="M151.93,194.36s13.39-1.56,16.54-1.73c0,0-2.9,1.55-1.98,1.94s3.32-.51,3.32-.51c0,0,2.68-.77,5.71-.8,0,0-1.6,1.63-.45,2.17,0,0,1.18.1,1.91-.13s3.32-.83,5.3-.8,6.38.03,8.07.8c0,0-5.68.83-5.14,1.5s2.14.32,2.14.32c0,0,2.07-.58,10.6.09,0,0,5.04.51,7.82,2.56s12.54,2.14,12.54,2.14c0,0-4.79.64-3.41,2.11s1.69.29,5.68,1.31,17.2,12.05,18.82,14.48c0,0-1.8,2.16.34,2.89s6.83,7.18,6.83,7.18c0,0-1.85-1.02-1.4,0s5.78,5.01,7.82,11.11c2.04,6.1,7.21,14.27,7.21,14.27,0,0-2.04.26,0,4.09s13.02,28.12,15.83,37.48c0,0-1.87-.66-.43,4.32s2.34,19.19,2.34,19.19c0,0,.26,11.74-.3,15.49-.55,3.74-1.91,7.28-1.32,8.77,0,0-4.38,12.98-3.74,17.28.64,4.3-.98,17.11-.98,17.11,0,0-2.77,9.02-4.04,9.06,0,0-7.74,26.77-26.64,40.81,0,0-22.89,19.66-33.7,24.17,0,0,.64-2.26-1.57-1.11s-19.53,11.02-22.26,11.83c0,0,1.91-2.51.89-2.34s-4.13,4.04-7.15,4.85c0,0,0-1.83-1.4-1.45s-27.34,11.15-31.55,10.89c0,0,3.11-2.09,1.06-2.04s-21.15-2.13-27.57-3.91c0,0-4.94-2.81-7.32-3.15s-5.57.04-5.57.04c0,0,1.23-2.77-10-4.98s-52.23-24.98-63.98-45.06c0,0-9.06-13.77-10.72-18.04,0,0,2.04-.77-1.21-5.55-3.26-4.79-6.64-28.21-5.87-40.28,0,0-1.34,2.36-1.72,6.32-.38,3.96-.51-16.28,2.11-21.77,0,0-2.01.51-2.31,3.38s-.88-6.57,2.06-9.19c0,0-1.09-15.26,3.32-23.68,0,0-2.49,1.47-3.26,3.06s5.57-22.4,11.32-33.13c5.74-10.72,12.89-20.34,12.89-20.34,0,0-1.66-.83-2.87.77-1.21,1.6,7.72-13.53,16.09-18.64,0,0-.64-.77-2.11-.06s24.28-39.23,44.45-44.34c0,0,6.6-2.89,25.37-2.34,18.77.54,33.61,1.62,33.61,1.62Z"/>
        <g class="cls-44">
          <path class="cls-46" d="M133.35,222.59s40.52,51.14,38.47,87.87c0,0-3.44-5.48-4.61-2.93s7.16,29.96,4.27,44.94c0,0-1.02-5.79-2.21-3.06-1.19,2.72-6.21,55.91-27.15,94.47,0,0-14.67,19.79-30.44,23.04s39.38,15.76,39.38,15.76l70.21-15.06,54.8-72.77,33.3-203.95-190.49-19.73,14.46,51.43Z"/>
        </g>
        <path id="_배-3" data-name="배" class="cls-20" d="M151.93,194.36s13.39-1.56,16.54-1.73c0,0-2.9,1.55-1.98,1.94s3.32-.51,3.32-.51c0,0,2.68-.77,5.71-.8,0,0-1.6,1.63-.45,2.17,0,0,1.18.1,1.91-.13s3.32-.83,5.3-.8,6.38.03,8.07.8c0,0-5.68.83-5.14,1.5s2.14.32,2.14.32c0,0,2.07-.58,10.6.09,0,0,5.04.51,7.82,2.56s12.54,2.14,12.54,2.14c0,0-4.79.64-3.41,2.11s1.69.29,5.68,1.31,17.2,12.05,18.82,14.48c0,0-1.8,2.16.34,2.89s6.83,7.18,6.83,7.18c0,0-1.85-1.02-1.4,0s5.78,5.01,7.82,11.11c2.04,6.1,7.21,14.27,7.21,14.27,0,0-2.04.26,0,4.09s13.02,28.12,15.83,37.48c0,0-1.87-.66-.43,4.32s2.34,19.19,2.34,19.19c0,0,.26,11.74-.3,15.49-.55,3.74-1.91,7.28-1.32,8.77,0,0-4.38,12.98-3.74,17.28.64,4.3-.98,17.11-.98,17.11,0,0-2.77,9.02-4.04,9.06,0,0-7.74,26.77-26.64,40.81,0,0-22.89,19.66-33.7,24.17,0,0,.64-2.26-1.57-1.11s-19.53,11.02-22.26,11.83c0,0,1.91-2.51.89-2.34s-4.13,4.04-7.15,4.85c0,0,0-1.83-1.4-1.45s-27.34,11.15-31.55,10.89c0,0,3.11-2.09,1.06-2.04s-21.15-2.13-27.57-3.91c0,0-4.94-2.81-7.32-3.15s-5.57.04-5.57.04c0,0,1.23-2.77-10-4.98s-52.23-24.98-63.98-45.06c0,0-9.06-13.77-10.72-18.04,0,0,2.04-.77-1.21-5.55-3.26-4.79-6.64-28.21-5.87-40.28,0,0-1.34,2.36-1.72,6.32-.38,3.96-.51-16.28,2.11-21.77,0,0-2.01.51-2.31,3.38s-.88-6.57,2.06-9.19c0,0-1.09-15.26,3.32-23.68,0,0-2.49,1.47-3.26,3.06s5.57-22.4,11.32-33.13c5.74-10.72,12.89-20.34,12.89-20.34,0,0-1.66-.83-2.87.77-1.21,1.6,7.72-13.53,16.09-18.64,0,0-.64-.77-2.11-.06s24.28-39.23,44.45-44.34c0,0,6.6-2.89,25.37-2.34,18.77.54,33.61,1.62,33.61,1.62Z"/>
      </g>
      <g id="R_수염03">
        <path class="cls-48" d="M235.76,159.13c10.82-1.33,21.73-1.71,32.63-1.44,10.88.37,21.91,1.23,32.36,4.47,0,0-.1.39-.1.39-16.02-2.83-32.37-2.94-48.58-3.15,0,0-16.3-.06-16.3-.06v-.2h-.01Z"/>
      </g>
      <g id="R_수염02">
        <path class="cls-48" d="M231.74,150.79c19.02-7.83,39.65-12.68,60.28-12.36,0,0,.01.4.01.4-10.18,1.02-20.35,2.58-30.36,4.74-5.01,1.04-10,2.22-14.98,3.45-4.97,1.27-9.94,2.55-14.89,3.96l-.07-.19h0Z"/>
      </g>
      <g id="R_수염01">
        <path class="cls-48" d="M224.19,142.74c7.7-3.69,15.72-6.63,23.86-9.17,8.16-2.45,16.5-4.54,25.04-5.23l.06.4c-12.39,2.95-24.52,6.72-36.68,10.48-4.05,1.27-8.12,2.49-12.21,3.71l-.07-.19h0Z"/>
      </g>
      <g id="L_수염03">
        <path class="cls-48" d="M70.14,163.67c-7.78,0-15.54-.2-23.31-.13-7.65.22-15.56-.12-22.89,2.34,0,0-.18-.36-.18-.36,3.43-2.01,7.44-2.73,11.33-3.27,7.79-.98,15.65-.83,23.45-.24,3.89.3,7.77.78,11.62,1.46l-.02.2h0Z"/>
      </g>
      <g id="L_수염02">
        <path class="cls-48" d="M69.29,156.81c-18.82-1.33-38.7-4.07-57.57-4.13-1.28.04-2.55.15-3.83.19l-.06-.39c10.2-1.94,20.65-1.1,30.92-.34,10.27.95,20.49,2.34,30.58,4.48l-.03.2h0Z"/>
      </g>
      <g id="L_수염01">
        <path class="cls-48" d="M77.95,151.75c-9.53-2.34-21.54-5.36-31.02-7.38-7.39-1.42-15.09-3.15-22.64-2.96,0,0-1.76.06-1.76.06l-.07-.39c4.7-1.03,9.57-.81,14.29-.3,9.47,1.05,18.74,3.32,27.83,6.07,4.54,1.38,9.03,2.94,13.43,4.72l-.06.19h0Z"/>
      </g>
      <path class="cls-10" d="M143.71,169.55s8.77.09,11.06.34"/>
      <g>
        <path class="cls-5" d="M213.54,257.48c-1.62-1.79-7.32-4.68-7.32-4.68,0,0-2.04-2.13-5.53-1.19-3.49.94-10.38,12.77-10.38,12.77-1.11,1.82-.94,3.06.21,4.26,1.15,1.19,2.85.21,4.04-.51,1.19-.72,3.91-2.85,5.06-3.4,1.15-.55,2.77,1.06,3.91,1.02,1.15-.04,2-1.91,3.79,0,1.79,1.91,6,3.74,6,3.74,2.6,1.62,3.28,1.19,4.43,1.15,1.15-.04-.38-3.62-.6-5.74-.21-2.13-2-5.62-3.62-7.4Z"/>
        <path class="cls-5" d="M253.54,272.93c-1.36-2.13-5.7-8.85-8.68-9.36,0,0-3.83-.68-6.55,1.53-2.72,2.21-6.21,8.94-6.21,9.36s-1.11,2.47,1.53,3.32c2.64.85,5.62-3.4,7.15-4.34,1.53-.94,2.89.09,2.89,1.19s.94,2.55,1.87,1.87c.94-.68,6.3,5.96,8,5.02,1.7-.94,1.36-6.47,0-8.6Z"/>
        <path class="cls-5" d="M233.35,230.12s-10.06-16.66-14.85-14.85c0,0-4.68.09-6.64,4.17-1.96,4.09-3.4,6.89-2.6,8.51.81,1.62,2.98.51,2.98.51,0,0,2.55-2.85,3.96-2.55s3.36.04,4.89,2.43c1.53,2.38,3.45.44,4.77.5,1.32.06,1.4,1.84,2.47,2.57s3.7,2.72,5.02,2.89,0-4.17,0-4.17Z"/>
        <path class="cls-5" d="M191.15,222.14c-1.66-5.74-7.47-13.72-15-13.91-7.53-.19-13.6,10.72-13.6,10.72-.87,1.72-.96,3.19,1.85,3.89,2.81.7,8.68-4.47,10.72-5.04,2.04-.57,2.55,1.98,4.02,2.55,1.47.57,2.04.13,3.26.51,1.21.38.7,1.34,2.49,1.28,1.79-.06,7.91,5.74,6.26,0Z"/>
        <g>
          <path class="cls-42" d="M153.42,248.23s-1.74-1.36-3.78-1.06c0,0-11.68,4.72-17.17,17.36-5.49,12.64,11.62-6.19,14.3-4.47,2.68,1.72,2.55,3.8,5.11.98,0,0,.66-.33,1.34.42.68.74,1.87,1,3.38.81,1.51-.19,5.11,5.11,8.66,4.96,3.55-.15,1.17-4,1.17-4,0,0-5.93-11.86-13.01-14.99Z"/>
          <g class="cls-38">
            <path class="cls-26" d="M149.73,245.14s9.88,17.62,11.98,22.43,8.82,1.62,8.82,1.62l-8.51-28.47-12.29,4.41Z"/>
          </g>
          <path class="cls-13" d="M153.42,248.23s-1.74-1.36-3.78-1.06c0,0-11.68,4.72-17.17,17.36-5.49,12.64,11.62-6.19,14.3-4.47,2.68,1.72,2.55,3.8,5.11.98,0,0,.66-.33,1.34.42.68.74,1.87,1,3.38.81,1.51-.19,5.11,5.11,8.66,4.96,3.55-.15,1.17-4,1.17-4,0,0-5.93-11.86-13.01-14.99Z"/>
        </g>
        <path class="cls-19" d="M97.26,253.04c-9,0-17.11,12.77-17.11,12.77,0,0-1.06,1.96-1.65,4.11-.6,2.15,1.03,3.53,2.1,3.43,0,0,5.62-2.94,8.81-6.32,3.19-3.38,3.57-2.04,6.13-1.4s.96-.51,3.89.19c2.94.7,3.57,4.21,7.47,4.34s1.72-9.13,1.72-9.13c0,0-2.36-7.98-11.36-7.98Z"/>
      </g>
      <g>
        <path class="cls-33" d="M107.05,83.1s6-7.4,49.02-7.66c0,0,3.74-.32,7,1.66,3.26,1.98,5.49-4.47,17.43-5.04s13.09,1.47,13.09,1.47c0,0,3.06,3.57,1.53,5.04-1.53,1.47-2.36.83-2.49,2.49s-1.4,8.3-4.34,11.17c-2.94,2.87-5.81,4.91-11.87,3.83s-7.53-4.66-7.53-4.66c0,0-2.81-2.94-6.45-.83-3.64,2.11-10.5,8.36-16.2,9.89-5.7,1.53-14.25.19-16.67-.89-2.43-1.09-12.19-6.45-15.64-9-3.45-2.55-6.87-5.49-6.87-5.49,0,0-1-.74,0-1.98Z"/>
        <g class="cls-24">
          <path class="cls-30" d="M112.5,91.62s19.02,4.21,27.06.13,15.7-18.77,15.7-18.77l44.68-3.43-5.23,30.75-81.83,2.94-.38-11.62Z"/>
        </g>
        <path class="cls-14" d="M107.05,83.1s6-7.4,49.02-7.66c0,0,3.74-.32,7,1.66,3.26,1.98,5.49-4.47,17.43-5.04s13.09,1.47,13.09,1.47c0,0,3.06,3.57,1.53,5.04-1.53,1.47-2.36.83-2.49,2.49s-1.4,8.3-4.34,11.17c-2.94,2.87-5.81,4.91-11.87,3.83s-7.53-4.66-7.53-4.66c0,0-2.81-2.94-6.45-.83-3.64,2.11-10.5,8.36-16.2,9.89-5.7,1.53-14.25.19-16.67-.89-2.43-1.09-12.19-6.45-15.64-9-3.45-2.55-6.87-5.49-6.87-5.49,0,0-1-.74,0-1.98Z"/>
      </g>
      <g>
        <polygon class="cls-41" points="146.68 174.59 146.68 32.67 149.38 32.67 149.38 181.61 146.68 181.61 146.68 174.59"/>
        <g class="cls-36">
          <polygon class="cls-1" points="148.03 42.09 148.03 174.73 163.14 174.73 156.33 38.17 148.03 42.09"/>
        </g>
        <polygon class="cls-9" points="146.68 174.59 146.68 32.67 149.38 32.67 149.38 181.61 146.68 181.61 146.68 174.59"/>
      </g>
      <g>
        <path class="cls-35" d="M144.8,174.65v42.81s.09,9.62,6.72,9.28,7.49-7.66,7.49-7.66v-22.04s-.21-2-1.79-1.96-2.34.81-2.38,1.83,0,16.94,0,16.94c0,0,.13,3.36-2.51,3.49,0,0-.89.21-.89-.89v-41.79s-.38-2.02-3.06-2.02-3.57,1.15-3.57,2.02Z"/>
        <g class="cls-2">
          <path class="cls-35" d="M148.03,169.89l.41,52.11s-1.21,3.91-3.64,2.3c-2.43-1.62,4.29,6.13,4.29,6.13l20.18-2.3-2.78-35.01-18.47-23.23Z"/>
        </g>
        <path class="cls-9" d="M144.8,174.65v42.81s.09,9.62,6.72,9.28,7.49-7.66,7.49-7.66v-22.04s-.21-2-1.79-1.96-2.34.81-2.38,1.83,0,16.94,0,16.94c0,0,.13,3.36-2.51,3.49,0,0-.89.21-.89-.89v-41.79s-.38-2.02-3.06-2.02-3.57,1.15-3.57,2.02Z"/>
      </g>
      <g>
        <path class="cls-27" d="M206.45,4.08c-20.73-3.83-51.7-3.57-51.7-3.57-39.7.13-61.91,6.38-61.91,6.38C51.47,13.14,26.32,59.61,26.32,59.61l12.52-5.18c5.12-2.12,10.55-3.4,16.08-3.78l12.37-.86s45.79-13.7,93.62-3.49c0,0,38.3-10.72,74.04,7.15,0,0,17.62-4.77,36.77,6.89,0,0-22.37-48.34-65.27-56.26Z"/>
        <g class="cls-3">
          <path class="cls-43" d="M64.41,49.98s58.99-30.7,92.01-30.87c0,0,19.83,16.34,39.12-20.04,0,0,2.84-.83-39.72,1.44-42.55,2.27,0,0,0,0l85.87-8.97,34.38,70.47-27.4,1.36-184.26-13.38"/>
        </g>
        <path class="cls-9" d="M206.45,4.08c-20.73-3.83-51.7-3.57-51.7-3.57-39.7.13-61.91,6.38-61.91,6.38C51.47,13.14,26.32,59.61,26.32,59.61l12.52-5.18c5.12-2.12,10.55-3.4,16.08-3.78l12.37-.86s45.79-13.7,93.62-3.49c0,0,38.3-10.72,74.04,7.15,0,0,17.62-4.77,36.77,6.89,0,0-22.37-48.34-65.27-56.26Z"/>
      </g>
      <g id="L_Arm">
        <g>
          <path class="cls-32" d="M52.61,191.18s6.47-3.88,6.47-2.43-2.86,2.56-.84,2.43,7.73-3.5,9.18-2.75-5.02,2.23-3.15,2.76,7.15-1.88,8.43-1.44-1.79,2.14,0,2.31,43.74-8.09,56.6-2.64c12.85,5.45,9.45,32.09,9.45,32.09,0,0-1.53,14.38-30.13,35.06-28.6,20.68-85.53,27.23-86.13,18.47"/>
          <g class="cls-37">
            <path class="cls-40" d="M115.82,181.61s23.48,22.35,15.57,39.45-66.89,45.6-72,48.72c-5.11,3.11-28.85,9.06-28.85,9.06l24.26,6.05,65.36-22.76,28.28-35.39-4.74-49.6-27.88,4.46Z"/>
          </g>
          <path class="cls-14" d="M52.61,191.18s6.47-3.88,6.47-2.43-2.86,2.56-.84,2.43,7.73-3.5,9.18-2.75-5.02,2.23-3.15,2.76,7.15-1.88,8.43-1.44-1.79,2.14,0,2.31,43.74-8.09,56.6-2.64c12.85,5.45,9.45,32.09,9.45,32.09,0,0-1.53,14.38-30.13,35.06-28.6,20.68-85.53,27.23-86.13,18.47"/>
        </g>
        <g>
          <path class="cls-22" d="M148.03,182.94s-15.78-3.44-20.06,8.24c0,0,.13,4.4,4.79,1.97,4.66-2.43,1.28-7.72,14.68-7.09,0,0,1.61-.06,1.72-1.38s-1.13-1.74-1.13-1.74Z"/>
          <path class="cls-22" d="M129.97,199.16s-1.36,5.11,3.79,4.51c0,0,10.03-11.28,14.27-11.74,0,0,2.6-2.6-.31-2.47s-10.55,2.72-13.15,5.28-4.6,4.43-4.6,4.43Z"/>
          <path class="cls-22" d="M133.76,207.73s-1.7,5.3,1.87,5.12c0,0,8.34-9.49,11.49-9.79,0,0,3.7-2.47-1.28-2.64,0,0-12.21,4.9-12.09,7.3Z"/>
          <path class="cls-22" d="M137.07,214.9s-1.91,2.81,0,4.17,9.36-7.45,10.72-8.68c0,0,.91-2.98-2.33-1.96s-8.39,6.47-8.39,6.47Z"/>
        </g>
      </g>
    </g>
  </g>
</svg>